<?xml version="1.0" encoding="utf-8"?>
<!-- Generator: Adobe Illustrator 26.5.0, SVG Export Plug-In . SVG Version: 6.00 Build 0)  -->
<svg version="1.1" id="Layer_1" xmlns="http://www.w3.org/2000/svg" xmlns:xlink="http://www.w3.org/1999/xlink" x="0px" y="0px"
	 viewBox="0 0 200 79.5" style="enable-background:new 0 0 200 79.5;" xml:space="preserve">
<style type="text/css">
	.st0{fill:#FFFFFF;}
</style>
<g>
	<g>
		<path class="st0" d="M32.4,24.9v23.5h12.9v6.2H25V24.9H32.4z"/>
		<path class="st0" d="M66.2,31.1h-1.5l-8.2,23.5h-7.6l10.8-29.6h11.7l10.8,29.6h-7.6L66.2,31.1z M56.8,42.5h17.3v6.2H56.8V42.5z"/>
		<path class="st0" d="M93.2,45.6c0.1,0.8,0.4,1.5,0.9,2c0.4,0.5,1,0.8,1.6,1.1c0.6,0.2,1.3,0.3,2.1,0.3c1.3,0,2.3-0.3,3.1-0.8
			c0.7-0.6,1.1-1.3,1.1-2.1c0-0.7-0.2-1.3-0.7-1.7c-0.4-0.4-1-0.8-1.8-1.1s-1.7-0.6-2.7-0.9c-1.1-0.3-2.3-0.7-3.4-1.1
			c-1.2-0.4-2.2-0.9-3.2-1.6c-1-0.6-1.8-1.5-2.4-2.5c-0.6-1-0.9-2.3-0.8-3.8c0-1.9,0.5-3.4,1.4-4.7c1-1.3,2.3-2.3,3.9-2.9
			c1.6-0.7,3.5-1,5.6-1c1.9,0,3.6,0.3,5.1,0.8c1.5,0.6,2.7,1.4,3.7,2.5c1,1.1,1.7,2.4,2.1,4l-6.8,1.2c-0.1-0.6-0.4-1.1-0.8-1.5
			c-0.4-0.4-0.9-0.7-1.4-0.9c-0.6-0.2-1.1-0.3-1.6-0.3c-0.7,0-1.3,0.1-1.9,0.3c-0.6,0.2-1,0.6-1.4,1c-0.4,0.4-0.5,0.9-0.5,1.5
			c0,0.6,0.2,1.1,0.6,1.5c0.4,0.4,1,0.7,1.7,1.1c0.7,0.3,1.5,0.6,2.3,0.9c1.2,0.4,2.3,0.8,3.6,1.2c1.2,0.4,2.3,1,3.4,1.6
			c1,0.7,1.9,1.5,2.5,2.5c0.6,1,1,2.3,1,3.9c0,1.7-0.4,3.2-1.2,4.5c-0.8,1.3-2,2.4-3.7,3.2c-1.6,0.8-3.7,1.2-6.2,1.2
			c-2.1,0-4-0.3-5.7-0.9c-1.7-0.6-3.1-1.5-4.1-2.7c-1.1-1.2-1.8-2.6-2.1-4.4L93.2,45.6z"/>
		<path class="st0" d="M115.7,24.9h7.4v11.5h2.1l9.1-11.5h8.7l-11.4,14.5l11.9,15.1h-9.1l-9.1-11.9H123v11.9h-7.4V24.9z"/>
		<path class="st0" d="M159.7,54.9c-2.1,0-4.1-0.4-5.9-1.1s-3.5-1.8-4.8-3.1c-1.4-1.3-2.5-2.9-3.3-4.8c-0.8-1.8-1.2-3.9-1.2-6.1
			c0-2.2,0.4-4.3,1.2-6.1c0.8-1.8,1.9-3.4,3.3-4.8c1.4-1.3,3-2.4,4.8-3.1c1.8-0.7,3.8-1.1,5.9-1.1c2.1,0,4.1,0.4,6,1.1
			c1.8,0.7,3.5,1.8,4.8,3.1c1.4,1.3,2.5,2.9,3.3,4.8s1.2,3.9,1.2,6.1c0,2.2-0.4,4.3-1.2,6.1s-1.9,3.4-3.3,4.8
			c-1.4,1.3-3,2.4-4.8,3.1C163.8,54.5,161.9,54.9,159.7,54.9z M159.7,48.6c1.6,0,2.9-0.4,4.1-1.1c1.2-0.8,2.1-1.8,2.7-3.1
			c0.6-1.3,1-2.8,1-4.5c0-1.7-0.3-3.2-1-4.6c-0.7-1.3-1.6-2.3-2.7-3.1c-1.2-0.8-2.5-1.1-4.1-1.1c-1.6,0-3,0.4-4.1,1.1
			c-1.2,0.8-2.1,1.8-2.7,3.1c-0.6,1.3-1,2.8-1,4.6c0,1.7,0.3,3.2,1,4.5c0.6,1.3,1.5,2.4,2.7,3.1C156.8,48.2,158.2,48.6,159.7,48.6z"
			/>
	</g>
	<path class="st0" d="M197.4,0.1h-4.8H7.4H4.8H0v72v7.4h192.6h0h7.4V0.1H197.4z M7.4,72.1V7.4h185.3v64.6H7.4z"/>
</g>
</svg>
